<?xml version="1.0" encoding="UTF-8" standalone="no"?><!DOCTYPE svg PUBLIC "-//W3C//DTD SVG 1.1//EN" "http://www.w3.org/Graphics/SVG/1.1/DTD/svg11.dtd"><svg width="100%" height="100%" viewBox="0 0 258 103" version="1.1" xmlns="http://www.w3.org/2000/svg" xmlns:xlink="http://www.w3.org/1999/xlink" xml:space="preserve" style="fill-rule:evenodd;clip-rule:evenodd;stroke-linejoin:round;stroke-miterlimit:1.41421;"><g><clipPath id="_clip1"><path d="M140.7,97.3l107.8,-9.5l1.2,-87.8l-109,12.9l0,84.4Z"/></clipPath><g clip-path="url(#_clip1)"><path d="M134.7,25.7l-1.2,51.9l115,10.2l-7.3,-84.3l-106.5,22.2Z" style="fill:#dedd07;fill-rule:nonzero;"/></g><path d="M103.7,8.4l103.1,7.9l0,67.4l-103.1,13.6l0,-88.9l0,0Z" style="fill:#009ba6;fill-rule:nonzero;"/><path d="M14.9,13.6l0.5,73.8l132.4,-5.7l-5.5,-61.5l-127.4,-6.6l0,0Z" style="fill:#82378c;fill-opacity:0.898039;fill-rule:nonzero;"/><g><g opacity="0.58"><g><path d="M37.125,60.272l0,-18.695l4.653,0c1.607,0 2.957,0.228 4.051,0.685c1.094,0.457 1.974,1.115 2.638,1.973c0.665,0.859 1.143,1.891 1.434,3.096c0.291,1.205 0.436,2.555 0.436,4.05c0,1.635 -0.208,3.019 -0.623,4.155c-0.416,1.136 -0.97,2.057 -1.662,2.763c-0.693,0.706 -1.482,1.212 -2.368,1.516c-0.887,0.305 -1.801,0.457 -2.742,0.457l-5.817,0Zm-6.523,-24.18l0,29.664l12.797,0c2.271,0 4.244,-0.38 5.92,-1.142c1.676,-0.762 3.074,-1.807 4.196,-3.137c1.122,-1.329 1.96,-2.908 2.514,-4.736c0.554,-1.828 0.831,-3.822 0.831,-5.983c0,-2.465 -0.34,-4.611 -1.018,-6.439c-0.679,-1.828 -1.62,-3.352 -2.825,-4.571c-1.205,-1.218 -2.632,-2.132 -4.28,-2.742c-1.648,-0.609 -3.427,-0.914 -5.338,-0.914l-12.797,0l0,0Z" style="fill:#fff;fill-rule:nonzero;"/><rect x="61.388" y="36.092" width="6.523" height="29.664" style="fill:#fff;"/></g><path d="M95.082,62.391l0.665,3.365l4.155,0l0,-16.036l-12.464,0l0,4.86l6.564,0c-0.194,2.078 -0.879,3.663 -2.056,4.758c-1.178,1.094 -2.846,1.641 -5.007,1.641c-1.468,0 -2.714,-0.284 -3.739,-0.852c-1.025,-0.568 -1.856,-1.323 -2.493,-2.264c-0.637,-0.942 -1.101,-2.002 -1.391,-3.179c-0.291,-1.177 -0.437,-2.389 -0.437,-3.635c0,-1.302 0.146,-2.562 0.437,-3.781c0.29,-1.218 0.754,-2.305 1.391,-3.261c0.637,-0.956 1.468,-1.717 2.493,-2.285c1.025,-0.568 2.271,-0.852 3.739,-0.852c1.579,0 2.922,0.416 4.03,1.247c1.108,0.831 1.856,2.077 2.244,3.739l6.232,0c-0.167,-1.69 -0.624,-3.185 -1.371,-4.487c-0.748,-1.302 -1.697,-2.396 -2.846,-3.282c-1.15,-0.887 -2.438,-1.558 -3.864,-2.015c-1.426,-0.457 -2.901,-0.686 -4.425,-0.686c-2.271,0 -4.314,0.402 -6.128,1.205c-1.814,0.803 -3.344,1.911 -4.591,3.324c-1.246,1.412 -2.202,3.067 -2.866,4.964c-0.665,1.898 -0.997,3.954 -0.997,6.17c0,2.16 0.332,4.175 0.997,6.045c0.664,1.87 1.62,3.497 2.866,4.882c1.247,1.385 2.777,2.472 4.591,3.261c1.814,0.789 3.857,1.184 6.128,1.184c1.441,0 2.867,-0.298 4.28,-0.893c1.412,-0.596 2.7,-1.641 3.863,-3.137l0,0Z" style="fill:#fff;fill-rule:nonzero;"/><g><rect x="109.333" y="36.092" width="6.523" height="29.664" style="fill:#fff;fill-rule:nonzero;"/><path d="M128.153,41.576l0,24.18l6.523,0l0,-24.18l8.891,0l0,-5.484l-24.305,0l0,5.484l8.891,0Z" style="fill:#fff;fill-rule:nonzero;"/></g></g></g><text x="143.88px" y="65.756px" style="font-family:'HelveticaNeue-Bold', 'Helvetica Neue';font-weight:700;font-size:41.546px;fill:none;">EC</text><g><path d="M128.239,41.577l0,24.179l6.523,0l0,-24.179l8.891,0l0,-5.485l-24.305,0l0,5.485l8.891,0Z" style="fill:#fff;fill-opacity:0.588235;fill-rule:nonzero;"/><rect x="109.419" y="36.092" width="6.523" height="29.664" style="fill:#fff;fill-opacity:0.588235;"/></g><text x="144.037px" y="65.756px" style="font-family:'HelveticaNeue-Bold', 'Helvetica Neue';font-weight:700;font-size:41.546px;fill:none;">EC</text><g><path d="M148.507,36.092l0,29.664l22.518,0l0,-5.484l-15.995,0l0,-7.27l14.375,0l0,-5.069l-14.375,0l0,-6.356l15.662,0l0,-5.485l-22.185,0l0,0Z" style="fill:#fff;fill-opacity:0.6;fill-rule:nonzero;"/><path d="M195.205,46.064l6.315,0c-0.194,-1.718 -0.665,-3.241 -1.413,-4.571c-0.748,-1.329 -1.696,-2.444 -2.846,-3.344c-1.149,-0.9 -2.451,-1.586 -3.905,-2.057c-1.454,-0.47 -2.998,-0.706 -4.632,-0.706c-2.272,0 -4.314,0.402 -6.129,1.205c-1.814,0.803 -3.344,1.911 -4.59,3.324c-1.247,1.412 -2.202,3.067 -2.867,4.964c-0.665,1.898 -0.997,3.954 -0.997,6.17c0,2.16 0.332,4.175 0.997,6.045c0.665,1.87 1.62,3.497 2.867,4.882c1.246,1.385 2.776,2.472 4.59,3.261c1.815,0.789 3.857,1.184 6.129,1.184c1.828,0 3.503,-0.277 5.027,-0.831c1.523,-0.554 2.852,-1.357 3.988,-2.409c1.136,-1.053 2.05,-2.327 2.742,-3.823c0.693,-1.495 1.122,-3.171 1.288,-5.027l-6.315,0c-0.249,1.994 -0.935,3.601 -2.057,4.82c-1.121,1.218 -2.679,1.828 -4.673,1.828c-1.468,0 -2.715,-0.284 -3.74,-0.852c-1.024,-0.568 -1.855,-1.323 -2.492,-2.264c-0.637,-0.942 -1.101,-2.002 -1.392,-3.179c-0.291,-1.177 -0.436,-2.389 -0.436,-3.635c0,-1.302 0.145,-2.562 0.436,-3.781c0.291,-1.218 0.755,-2.305 1.392,-3.261c0.637,-0.956 1.468,-1.717 2.492,-2.285c1.025,-0.568 2.272,-0.852 3.74,-0.852c0.803,0 1.571,0.132 2.305,0.395c0.734,0.263 1.392,0.63 1.974,1.101c0.581,0.471 1.066,1.018 1.454,1.641c0.388,0.623 0.637,1.309 0.748,2.057l0,0Z" style="fill:#fff;fill-opacity:0.6;fill-rule:nonzero;"/></g></g></svg>