<?xml version="1.0" encoding="UTF-8" standalone="no"?><!DOCTYPE svg PUBLIC "-//W3C//DTD SVG 1.1//EN" "http://www.w3.org/Graphics/SVG/1.1/DTD/svg11.dtd"><svg width="100%" height="100%" viewBox="0 0 274 102" version="1.1" xmlns="http://www.w3.org/2000/svg" xmlns:xlink="http://www.w3.org/1999/xlink" xml:space="preserve" style="fill-rule:evenodd;clip-rule:evenodd;stroke-linejoin:round;stroke-miterlimit:1.41421;"><g><path d="M17.78,26.525l-6.965,54.141l243.395,14.139l6.39,-82.378l-242.82,14.098Z" style="fill:#009ca7;fill-rule:nonzero;"/><g><path d="M64.193,40.408l0,28.56l9.88,0c4.347,-0.106 7.62,-1.326 9.82,-3.66c2.2,-2.333 3.3,-5.873 3.3,-10.62c0,-4.746 -1.1,-8.286 -3.3,-10.62c-2.2,-2.333 -5.473,-3.553 -9.82,-3.66l-9.88,0Zm2.72,26.24l0,-23.92l5.8,0c2.053,0 3.82,0.22 5.3,0.66c1.48,0.44 2.7,1.14 3.66,2.1c0.96,0.96 1.667,2.2 2.12,3.72c0.453,1.52 0.68,3.347 0.68,5.48c0,2.134 -0.227,3.96 -0.68,5.48c-0.453,1.52 -1.16,2.76 -2.12,3.72c-0.96,0.96 -2.18,1.66 -3.66,2.1c-1.48,0.44 -3.247,0.66 -5.3,0.66l-5.8,0Z" style="fill:#fff;fill-rule:nonzero;"/><g><rect x="92.153" y="40.408" width="2.72" height="28.56" style="fill:#fff;fill-rule:nonzero;"/><path d="M125.233,68.968l0,-14.52l-12.12,0l0,2.32l9.72,0c0.027,1.52 -0.173,2.92 -0.6,4.2c-0.427,1.28 -1.067,2.387 -1.92,3.32c-0.853,0.934 -1.9,1.66 -3.14,2.18c-1.24,0.52 -2.647,0.78 -4.22,0.78c-1.893,0 -3.52,-0.36 -4.88,-1.08c-1.36,-0.72 -2.473,-1.673 -3.34,-2.86c-0.867,-1.186 -1.507,-2.533 -1.92,-4.04c-0.413,-1.506 -0.62,-3.033 -0.62,-4.58c0,-1.573 0.207,-3.106 0.62,-4.6c0.413,-1.493 1.053,-2.833 1.92,-4.02c0.867,-1.186 1.98,-2.14 3.34,-2.86c1.36,-0.72 2.987,-1.08 4.88,-1.08c1.36,0 2.587,0.22 3.68,0.66c1.093,0.44 2.033,1.007 2.82,1.7c0.787,0.694 1.413,1.46 1.88,2.3c0.467,0.84 0.74,1.674 0.82,2.5l2.72,0c-0.267,-1.573 -0.76,-2.946 -1.48,-4.12c-0.72,-1.173 -1.6,-2.16 -2.64,-2.96c-1.04,-0.8 -2.227,-1.4 -3.56,-1.8c-1.333,-0.4 -2.747,-0.6 -4.24,-0.6c-2.24,0 -4.207,0.407 -5.9,1.22c-1.693,0.814 -3.1,1.907 -4.22,3.28c-1.12,1.374 -1.96,2.954 -2.52,4.74c-0.56,1.787 -0.84,3.667 -0.84,5.64c0,1.974 0.28,3.854 0.84,5.64c0.56,1.787 1.4,3.36 2.52,4.72c1.12,1.36 2.527,2.447 4.22,3.26c1.693,0.814 3.66,1.22 5.9,1.22c1.04,0 2.047,-0.106 3.02,-0.32c0.973,-0.213 1.887,-0.553 2.74,-1.02c0.853,-0.466 1.633,-1.066 2.34,-1.8c0.707,-0.733 1.3,-1.606 1.78,-2.62l0.08,0l0.36,5.2l1.96,0Z" style="fill:#fff;fill-rule:nonzero;"/><rect x="130.673" y="40.408" width="2.72" height="28.56" style="fill:#fff;fill-rule:nonzero;"/><path d="M136.313,40.408l0,2.32l9.92,0l0,26.24l2.72,0l0,-26.24l9.96,0l0,-2.32l-22.6,0Z" style="fill:#fff;fill-rule:nonzero;"/></g><path d="M163.192,40.408l0,28.56l19.92,0l0,-2.32l-17.2,0l0,-11.28l15.92,0l0,-2.32l-15.92,0l0,-10.32l17,0l0,-2.32l-19.72,0Z" style="fill:#fff;fill-rule:nonzero;"/></g><path d="M208.233,49.048l2.72,0c-0.187,-1.493 -0.634,-2.813 -1.34,-3.96c-0.707,-1.146 -1.587,-2.113 -2.64,-2.9c-1.054,-0.786 -2.227,-1.38 -3.52,-1.78c-1.294,-0.4 -2.62,-0.6 -3.98,-0.6c-2.24,0 -4.207,0.407 -5.9,1.22c-1.694,0.814 -3.1,1.907 -4.22,3.28c-1.12,1.374 -1.96,2.954 -2.52,4.74c-0.56,1.787 -0.84,3.667 -0.84,5.64c0,1.974 0.28,3.854 0.84,5.64c0.56,1.787 1.4,3.36 2.52,4.72c1.12,1.36 2.526,2.447 4.22,3.26c1.693,0.814 3.66,1.22 5.9,1.22c1.68,0 3.206,-0.266 4.58,-0.8c1.373,-0.533 2.566,-1.293 3.58,-2.28c1.013,-0.986 1.84,-2.186 2.48,-3.6c0.64,-1.413 1.053,-3 1.24,-4.76l-2.72,0c-0.134,1.28 -0.44,2.474 -0.92,3.58c-0.48,1.107 -1.107,2.074 -1.88,2.9c-0.774,0.827 -1.694,1.48 -2.76,1.96c-1.067,0.48 -2.267,0.72 -3.6,0.72c-1.894,0 -3.52,-0.36 -4.88,-1.08c-1.36,-0.72 -2.474,-1.673 -3.34,-2.86c-0.867,-1.186 -1.507,-2.533 -1.92,-4.04c-0.414,-1.506 -0.62,-3.033 -0.62,-4.58c0,-1.573 0.206,-3.106 0.62,-4.6c0.413,-1.493 1.053,-2.833 1.92,-4.02c0.866,-1.186 1.98,-2.14 3.34,-2.86c1.36,-0.72 2.986,-1.08 4.88,-1.08c1.04,0 2.033,0.154 2.98,0.46c0.946,0.307 1.813,0.754 2.6,1.34c0.786,0.587 1.453,1.314 2,2.18c0.546,0.867 0.94,1.847 1.18,2.94Z" style="fill:#fff;fill-rule:nonzero;"/></g></svg>