<?xml version="1.0" encoding="utf-8"?>
<!-- Generator: Adobe Illustrator 18.1.1, SVG Export Plug-In . SVG Version: 6.00 Build 0)  -->
<svg version="1.1" id="Layer_1" xmlns="http://www.w3.org/2000/svg" xmlns:xlink="http://www.w3.org/1999/xlink" x="0px" y="0px"
	 viewBox="0 0 257.4 102.6" enable-background="new 0 0 257.4 102.6" xml:space="preserve">
<g>
	<g>
		<g>
			<defs>
				<polygon id="SVGID_1_" points="140.7,97.3 248.5,87.8 249.7,0 140.7,12.9 				"/>
			</defs>
			<clipPath id="SVGID_2_">
				<use xlink:href="#SVGID_1_"  overflow="visible"/>
			</clipPath>
			<polygon clip-path="url(#SVGID_2_)" fill="#DEDD07" points="134.7,25.7 133.5,77.6 248.5,87.8 241.2,3.5 			"/>
		</g>
	</g>
	<g>
		<g>
			<defs>
				<rect id="SVGID_3_" x="103.7" y="8.4" width="103.1" height="88.8"/>
			</defs>
			<clipPath id="SVGID_4_">
				<use xlink:href="#SVGID_3_"  overflow="visible"/>
			</clipPath>
			<polygon clip-path="url(#SVGID_4_)" fill="#009BA6" points="103.7,8.4 206.8,16.3 206.8,83.7 103.7,97.3 			"/>
		</g>
	</g>
	<g opacity="0.9">
		<g>
			<defs>
				<rect id="SVGID_5_" x="14.9" y="13.6" width="132.9" height="73.7"/>
			</defs>
			<clipPath id="SVGID_6_">
				<use xlink:href="#SVGID_5_"  overflow="visible"/>
			</clipPath>
			<polygon clip-path="url(#SVGID_6_)" fill="#82378C" points="14.9,13.6 15.4,87.4 147.8,81.7 142.3,20.2 			"/>
		</g>
	</g>
	<g opacity="0.58">
		<g>
			<defs>
				<rect id="SVGID_7_" x="27.7" y="30.2" width="116.4" height="55.6"/>
			</defs>
			<clipPath id="SVGID_8_">
				<use xlink:href="#SVGID_7_"  overflow="visible"/>
			</clipPath>
			<g clip-path="url(#SVGID_8_)">
				<text transform="matrix(1 0 0 1 27.7358 65.7564)" fill="#FFFFFF" font-family="'HelveticaNeue-Bold'" font-size="41.5462">DI</text>
			</g>
			<g clip-path="url(#SVGID_8_)">
				<text transform="matrix(1 0 0 1 70.7778 65.7564)" fill="#FFFFFF" font-family="'HelveticaNeue-Bold'" font-size="41.5462">G</text>
			</g>
			<g clip-path="url(#SVGID_8_)">
				<text transform="matrix(1 0 0 1 106.4662 65.7564)" fill="#FFFFFF" font-family="'HelveticaNeue-Bold'" font-size="41.5462">IT</text>
			</g>
		</g>
	</g>
	<g opacity="0">
		<g>
			<defs>
				<rect id="SVGID_9_" x="143.9" y="30.2" width="57.7" height="55.6"/>
			</defs>
			<clipPath id="SVGID_10_">
				<use xlink:href="#SVGID_9_"  overflow="visible"/>
			</clipPath>
			<g clip-path="url(#SVGID_10_)">
				<text transform="matrix(1 0 0 1 143.8803 65.7564)" fill="#FFFFFF" font-family="'HelveticaNeue-Bold'" font-size="41.5462">EC</text>
			</g>
		</g>
	</g>
	<g opacity="0.59">
		<g>
			<defs>
				<rect id="SVGID_11_" x="106.6" y="30.2" width="37.6" height="55.6"/>
			</defs>
			<clipPath id="SVGID_12_">
				<use xlink:href="#SVGID_11_"  overflow="visible"/>
			</clipPath>
			<g clip-path="url(#SVGID_12_)">
				<text transform="matrix(1 0 0 1 106.5522 65.7564)" fill="#FFFFFF" font-family="'HelveticaNeue-Bold'" font-size="41.5462">IT</text>
			</g>
		</g>
	</g>
	<g opacity="0">
		<g>
			<defs>
				<rect id="SVGID_13_" x="144" y="30.2" width="57.7" height="55.6"/>
			</defs>
			<clipPath id="SVGID_14_">
				<use xlink:href="#SVGID_13_"  overflow="visible"/>
			</clipPath>
			<g clip-path="url(#SVGID_14_)">
				<text transform="matrix(1 0 0 1 144.0366 65.7564)" fill="#FFFFFF" font-family="'HelveticaNeue-Bold'" font-size="41.5462">EC</text>
			</g>
		</g>
	</g>
	<g opacity="0.6">
		<g>
			<defs>
				<rect id="SVGID_15_" x="145.6" y="30.2" width="57.7" height="55.6"/>
			</defs>
			<clipPath id="SVGID_16_">
				<use xlink:href="#SVGID_15_"  overflow="visible"/>
			</clipPath>
			<g clip-path="url(#SVGID_16_)">
				<text transform="matrix(1 0 0 1 145.6401 65.7564)" fill="#FFFFFF" font-family="'HelveticaNeue-Bold'" font-size="41.5462">EC</text>
			</g>
		</g>
	</g>
</g>
</svg>
